<svg width="15" height="12" viewBox="0 0 15 12" fill="none" xmlns="http://www.w3.org/2000/svg">
<path d="M0.396578 4.89526e-07L14.6034 0C14.8678 -9.10995e-09 15 0.104206 15 0.312617V1.47114C15 1.67955 14.8678 1.78376 14.6034 1.78376L0.396578 1.78376C0.132193 1.78376 7.57981e-08 1.67955 6.42415e-08 1.47114L0 0.312618C-1.15567e-08 0.104206 0.132193 4.98636e-07 0.396578 4.89526e-07Z" fill="white"/>
<path d="M0.396578 5.10812L14.6034 5.10812C14.8678 5.10812 15 5.21233 15 5.42074V6.57926C15 6.78767 14.8678 6.89188 14.6034 6.89188L0.396578 6.89188C0.132193 6.89188 7.57981e-08 6.78767 6.42415e-08 6.57926L0 5.42074C-1.15567e-08 5.21233 0.132193 5.10812 0.396578 5.10812Z" fill="white"/>
<path d="M0.396578 10.2162H14.6034C14.8678 10.2162 15 10.3204 15 10.5289V11.6874C15 11.8958 14.8678 12 14.6034 12H0.396578C0.132193 12 7.57981e-08 11.8958 6.42415e-08 11.6874L0 10.5289C-1.15567e-08 10.3204 0.132193 10.2162 0.396578 10.2162Z" fill="white"/>
</svg>
