<svg width="10" height="5" viewBox="0 0 10 5" fill="none" xmlns="http://www.w3.org/2000/svg">
<path d="M0.316945 0.66784C0.31664 0.512072 0.370891 0.361114 0.470278 0.241173C0.526244 0.173667 0.594978 0.117866 0.672544 0.0769647C0.750108 0.0360634 0.834979 0.0108658 0.922297 0.00281524C1.00961 -0.00523534 1.09766 0.00401935 1.1814 0.030049C1.26513 0.0560787 1.34291 0.0983714 1.41028 0.154506L4.98361 3.14117L8.56361 0.261174C8.6318 0.205796 8.71027 0.164442 8.79449 0.139487C8.87872 0.114533 8.96705 0.10647 9.0544 0.115763C9.14175 0.125056 9.22641 0.15152 9.3035 0.193636C9.38059 0.235752 9.4486 0.292689 9.50361 0.361174C9.5643 0.430151 9.61008 0.510928 9.63807 0.598436C9.66607 0.685945 9.67567 0.778295 9.66628 0.86969C9.65689 0.961085 9.62871 1.04955 9.58351 1.12954C9.53831 1.20953 9.47706 1.27931 9.40361 1.33451L5.40361 4.55451C5.28432 4.65256 5.13469 4.70617 4.98028 4.70617C4.82586 4.70617 4.67623 4.65256 4.55694 4.55451L0.556945 1.22117C0.476267 1.1543 0.412491 1.06934 0.370791 0.9732C0.329092 0.87706 0.310644 0.772444 0.316945 0.66784Z" fill="#303030"/>
</svg>
