<svg width="24" height="24" viewBox="0 0 24 24" fill="none" xmlns="http://www.w3.org/2000/svg">
<path d="M4 6.63158C4 6.28277 4.27789 6 4.62069 6H21.3793C21.7221 6 22 6.28277 22 6.63158V7.26316C22 7.61197 21.7221 7.89474 21.3793 7.89474H4.62069C4.27789 7.89474 4 7.61197 4 7.26316V6.63158Z" fill="white"/>
<path d="M4 11.6842C4 11.3354 4.27789 11.0526 4.62069 11.0526H15.1724C15.5152 11.0526 15.7931 11.3354 15.7931 11.6842V12.3158C15.7931 12.6646 15.5152 12.9474 15.1724 12.9474H4.62069C4.27789 12.9474 4 12.6646 4 12.3158V11.6842Z" fill="white"/>
<path d="M4 16.7368C4 16.388 4.27789 16.1053 4.62069 16.1053H10.2069C10.5497 16.1053 10.8276 16.388 10.8276 16.7368V17.3684C10.8276 17.7172 10.5497 18 10.2069 18H4.62069C4.27789 18 4 17.7172 4 17.3684V16.7368Z" fill="white"/>
</svg>
