<svg width="36" height="28" viewBox="0 0 36 28" fill="none" xmlns="http://www.w3.org/2000/svg">
<path d="M29.3151 20.693H15.5197C14.83 20.693 14.3126 20.3481 13.9678 19.6583L5.86301 3.44883H1.72442C0.689766 3.44883 0 2.75906 0 1.72442C0 0.689766 0.689766 0 1.72442 0H6.89766C7.58743 0 8.10475 0.344883 8.44964 1.03465L16.5544 17.2442H28.108L32.7639 6.72522C33.1088 5.86301 34.1434 5.51813 35.0056 5.86301C35.8678 6.2079 36.2127 7.24254 35.8678 8.10475L30.6946 19.6583C30.6946 20.3481 30.0048 20.693 29.3151 20.693Z" fill="white"/>
<path d="M16.3819 27.5907C17.8105 27.5907 18.9685 26.4327 18.9685 25.0041C18.9685 23.5756 17.8105 22.4175 16.3819 22.4175C14.9534 22.4175 13.7953 23.5756 13.7953 25.0041C13.7953 26.4327 14.9534 27.5907 16.3819 27.5907Z" fill="white"/>
<path d="M28.4528 27.5907C29.8814 27.5907 31.0395 26.4327 31.0395 25.0041C31.0395 23.5756 29.8814 22.4175 28.4528 22.4175C27.0243 22.4175 25.8662 23.5756 25.8662 25.0041C25.8662 26.4327 27.0243 27.5907 28.4528 27.5907Z" fill="white"/>
</svg>
