<svg width="19" height="16" viewBox="0 0 19 16" fill="none" xmlns="http://www.w3.org/2000/svg">
<path d="M13.6669 5.86387L9.95491 0.335079C9.78618 0.0837696 9.53309 0 9.28 0C9.02691 0 8.77382 0.0837696 8.60509 0.335079L4.89309 5.86387H0.843636C0.421818 5.86387 0 6.19895 0 6.70157C0 6.78534 0 6.86911 0 6.95288L2.10909 14.7435C2.27782 15.4136 2.95273 16 3.712 16H14.6793C15.4385 16 16.1135 15.4974 16.2822 14.7435L18.56 6.95288V6.70157C18.56 6.19895 18.1382 5.86387 17.7164 5.86387H13.6669ZM6.74909 5.86387L9.28 2.17801L11.8109 5.86387H6.74909ZM9.28 12.5654C8.352 12.5654 7.59273 11.8115 7.59273 10.8901C7.59273 9.96859 8.352 9.21466 9.28 9.21466C10.208 9.21466 10.9673 9.96859 10.9673 10.8901C10.9673 11.8115 10.208 12.5654 9.28 12.5654Z" fill="white"/>
</svg>
