<svg width="20" height="15" viewBox="0 0 20 15" fill="none" xmlns="http://www.w3.org/2000/svg">
<path d="M8.86149 10.5C8.86149 11.6935 8.39468 12.8381 7.56375 13.682C6.73283 14.5259 5.60585 15 4.43074 15C3.25564 15 2.12866 14.5259 1.29774 13.682C0.466809 12.8381 1.77436e-07 11.6935 0 10.5L8.86149 10.5Z" fill="#6A6A6A"/>
<path d="M4.20385 3L4.87484 3.39345L0.671007 10.7885L1.93668e-05 10.3951L4.20385 3Z" fill="#6A6A6A"/>
<path d="M4.79465 3.09229L4.12367 3.48574L8.32901 10.8835L9 10.49L4.79465 3.09229Z" fill="#6A6A6A"/>
<path d="M19.8615 7.5C19.8615 8.69347 19.3947 9.83807 18.5638 10.682C17.7328 11.5259 16.6059 12 15.4307 12C14.2556 12 13.1287 11.5259 12.2977 10.682C11.4668 9.83807 11 8.69347 11 7.5L19.8615 7.5Z" fill="#6A6A6A"/>
<path d="M14.9682 0.290861L15.8748 0.39345L11.671 7.78851L11 7.39506L14.9682 0.290861Z" fill="#6A6A6A"/>
<path d="M15.7947 0.0922852L15.1237 0.485735L19.329 7.88346L20 7.49001L15.7947 0.0922852Z" fill="#6A6A6A"/>
<path d="M4.20385 3L15.8436 0.0705385L16.0941 1.03866L4.4545 4.04991L4.20385 3Z" fill="#6A6A6A"/>
<path d="M8 2.30005V4.88758e-05L10 4.87884e-05V2.30005H8Z" fill="#6A6A6A"/>
</svg>
