<svg width="27" height="16" viewBox="0 0 27 16" fill="none" xmlns="http://www.w3.org/2000/svg">
<path d="M10.363 2.2243H2.28147V3.59502H10.363V2.2243Z" fill="white"/>
<path d="M8.498 5.07788H0V6.4486H8.498V5.07788Z" fill="white"/>
<path d="M9.6978 10.7788H5.17838V12.1495H9.6978V10.7788Z" fill="white"/>
<path d="M7.75202 7.92523H2.61095V9.29595H7.75202V7.92523Z" fill="white"/>
<path d="M18.258 0C13.8567 0 10.2759 3.58879 10.2759 8C10.2759 12.4112 13.8567 16 18.258 16C22.6593 16 26.24 12.4112 26.24 8C26.24 3.58879 22.6593 0 18.258 0ZM23.0198 8.89097H17.5679V2.40498H19.1034V7.35203H23.0136V8.89097H23.0198Z" fill="white"/>
</svg>
