<svg width="18" height="12" viewBox="0 0 18 12" fill="none" xmlns="http://www.w3.org/2000/svg">
<path d="M0.396578 0.000117165L16.7356 9.11041e-09C17 0 17.1322 0.104206 17.1322 0.312617V1.47114C17.1322 1.67955 17 1.78376 16.7356 1.78376L0.396578 1.78387C0.132193 1.78387 7.57981e-08 1.67967 6.42415e-08 1.47126L0 0.312734C-1.15567e-08 0.104323 0.132193 0.000117174 0.396578 0.000117165Z" fill="white"/>
<path d="M0.396578 5.10824L11.5 5.10824C11.7644 5.10824 11.8966 5.21244 11.8966 5.42086V6.57938C11.8966 6.78779 11.7644 6.89199 11.5 6.89199L0.396578 6.892C0.132193 6.892 7.57981e-08 6.78779 6.42415e-08 6.57938L0 5.42086C-1.15567e-08 5.21244 0.132193 5.10824 0.396578 5.10824Z" fill="white"/>
<path d="M0.396578 10.2164H6.23561C6.5 10.2164 6.63219 10.3206 6.63219 10.529V11.6875C6.63219 11.8959 6.5 12.0001 6.23561 12.0001H0.396578C0.132193 12.0001 7.57981e-08 11.8959 6.42415e-08 11.6875L0 10.529C-1.15567e-08 10.3206 0.132193 10.2164 0.396578 10.2164Z" fill="white"/>
</svg>
