<svg width="19" height="17" viewBox="0 0 19 17" fill="none" xmlns="http://www.w3.org/2000/svg">
<path d="M16.7271 1.53516C14.6881 -0.1875 11.5592 0.0585938 9.62556 2.0625C7.65681 0.0585938 4.5279 -0.1875 2.48884 1.53516C-0.147877 3.75 0.238842 7.37109 2.13728 9.30469L8.28962 15.5977C8.64119 15.9492 9.09822 16.1602 9.62556 16.1602C10.1177 16.1602 10.5748 15.9492 10.9263 15.5977L17.1138 9.30469C18.9771 7.37109 19.3638 3.75 16.7271 1.53516ZM15.8834 8.10938L9.73103 14.4023C9.66072 14.4727 9.5904 14.4727 9.48494 14.4023L3.33259 8.10938C2.03181 6.80859 1.78572 4.34766 3.57869 2.83594C4.94978 1.67578 7.05915 1.85156 8.39509 3.1875L9.62556 4.45312L10.856 3.1875C12.1568 1.85156 14.2662 1.67578 15.6373 2.80078C17.4302 4.34766 17.1842 6.80859 15.8834 8.10938Z" fill="#6A6A6A"/>
</svg>
