<svg width="15" height="22" viewBox="0 0 15 22" fill="none" xmlns="http://www.w3.org/2000/svg">
<path d="M12.5714 0H1.57143C1.15466 0 0.754961 0.165561 0.460261 0.460261C0.165561 0.754961 0 1.15466 0 1.57143V20.4286C0 20.8453 0.165561 21.245 0.460261 21.5397C0.754961 21.8344 1.15466 22 1.57143 22H12.5714C12.9882 22 13.3879 21.8344 13.6826 21.5397C13.9773 21.245 14.1429 20.8453 14.1429 20.4286V1.57143C14.1429 1.15466 13.9773 0.754961 13.6826 0.460261C13.3879 0.165561 12.9882 0 12.5714 0ZM7.85714 20.4286H6.28571V18.8571H7.85714V20.4286ZM1.57143 17.2857V1.57143H12.5714V17.2857H1.57143Z" fill="white"/>
</svg>
