<svg width="19" height="24" viewBox="0 0 19 24" fill="none" xmlns="http://www.w3.org/2000/svg">
<path d="M10.0625 0.328125C5.23438 0.328125 0.5 3.51562 0.5 8.71875C0.5 12 2.32812 13.875 3.45312 13.875C3.92188 13.875 4.20312 12.6094 4.20312 12.2344C4.20312 11.8125 3.07812 10.875 3.07812 9.04688C3.07812 5.29688 5.9375 2.625 9.64062 2.625C12.875 2.625 15.2188 4.45312 15.2188 7.78125C15.2188 10.2656 14.2344 14.9062 11 14.9062C9.82812 14.9062 8.79688 14.0625 8.79688 12.8906C8.79688 11.1094 10.0625 9.375 10.0625 7.54688C10.0625 4.45312 5.65625 5.01562 5.65625 8.76562C5.65625 9.5625 5.75 10.4062 6.125 11.1562C5.46875 13.9219 4.15625 18.0938 4.15625 20.9531C4.15625 21.8438 4.25 22.6875 4.34375 23.5781C4.48438 23.7656 4.4375 23.7656 4.67188 23.6719C7.01562 20.4375 6.96875 19.7812 8 15.5625C8.60938 16.6406 10.0625 17.25 11.2812 17.25C16.25 17.25 18.5 12.375 18.5 8.01562C18.5 3.375 14.4688 0.328125 10.0625 0.328125Z" fill="#E3E3E3"/>
</svg>
