<svg width="20" height="19" viewBox="0 0 20 19" fill="none" xmlns="http://www.w3.org/2000/svg">
<path d="M18.706 0.695386C18.2606 0.250131 17.6566 0 17.0268 0C16.397 0 15.793 0.250131 15.3476 0.695386L6.33902 9.704V13.0623H9.69736L18.706 4.05373C19.1512 3.60834 19.4014 3.00434 19.4014 2.37456C19.4014 1.74477 19.1512 1.14078 18.706 0.695386Z" fill="white"/>
<path fill-rule="evenodd" clip-rule="evenodd" d="M0.401367 4.75013C0.401367 4.12022 0.651596 3.51611 1.09701 3.0707C1.54242 2.62529 2.14652 2.37506 2.77643 2.37506H7.52656C7.84151 2.37506 8.14356 2.50018 8.36627 2.72288C8.58897 2.94559 8.71409 3.24764 8.71409 3.5626C8.71409 3.87755 8.58897 4.1796 8.36627 4.40231C8.14356 4.62501 7.84151 4.75013 7.52656 4.75013H2.77643V16.6254H14.6517V11.8753C14.6517 11.5604 14.7769 11.2583 14.9996 11.0356C15.2223 10.8129 15.5243 10.6878 15.8393 10.6878C16.1542 10.6878 16.4563 10.8129 16.679 11.0356C16.9017 11.2583 17.0268 11.5604 17.0268 11.8753V16.6254C17.0268 17.2553 16.7766 17.8595 16.3312 18.3049C15.8858 18.7503 15.2817 19.0005 14.6517 19.0005H2.77643C2.14652 19.0005 1.54242 18.7503 1.09701 18.3049C0.651596 17.8595 0.401367 17.2553 0.401367 16.6254V4.75013Z" fill="white"/>
</svg>
