<svg width="24" height="24" viewBox="0 0 24 24" fill="none" xmlns="http://www.w3.org/2000/svg">
<path d="M21 2.25H3C2.17157 2.25 1.5 2.92157 1.5 3.75V4.5C1.5 5.32843 2.17157 6 3 6H21C21.8284 6 22.5 5.32843 22.5 4.5V3.75C22.5 2.92157 21.8284 2.25 21 2.25Z" fill="#666666"/>
<path d="M3.48982 7.50001C3.43712 7.49972 3.38495 7.51055 3.33672 7.53178C3.28849 7.55301 3.24527 7.58416 3.20989 7.62322C3.17451 7.66227 3.14775 7.70834 3.13137 7.75843C3.11499 7.80852 3.10935 7.8615 3.11482 7.91391L4.3481 19.7527C4.34785 19.7561 4.34785 19.7595 4.3481 19.763C4.41254 20.3105 4.67579 20.8154 5.08788 21.1817C5.49997 21.548 6.03221 21.7502 6.58357 21.75H17.4159C17.9671 21.75 18.4991 21.5477 18.911 21.1814C19.3229 20.8151 19.586 20.3104 19.6504 19.763V19.7531L20.8819 7.91391C20.8873 7.8615 20.8817 7.80852 20.8653 7.75843C20.8489 7.70834 20.8222 7.66227 20.7868 7.62322C20.7514 7.58416 20.7082 7.55301 20.6599 7.53178C20.6117 7.51055 20.5595 7.49972 20.5069 7.50001H3.48982ZM15.1551 15.9698C15.2264 16.0391 15.2832 16.1219 15.3223 16.2133C15.3613 16.3048 15.3818 16.403 15.3825 16.5024C15.3832 16.6019 15.3641 16.7004 15.3264 16.7924C15.2887 16.8844 15.233 16.9679 15.1627 17.0382C15.0924 17.1085 15.0088 17.1641 14.9168 17.2018C14.8248 17.2395 14.7263 17.2585 14.6268 17.2577C14.5274 17.257 14.4292 17.2365 14.3377 17.1974C14.2463 17.1583 14.1636 17.1015 14.0943 17.0302L12 14.9358L9.90513 17.0302C9.76383 17.1675 9.57418 17.2436 9.37717 17.2422C9.18016 17.2408 8.99162 17.162 8.85227 17.0227C8.71293 16.8834 8.63399 16.6949 8.63251 16.4979C8.63103 16.3009 8.70712 16.1112 8.84435 15.9698L10.9392 13.875L8.84435 11.7802C8.70712 11.6388 8.63103 11.4491 8.63251 11.2521C8.63399 11.0551 8.71293 10.8666 8.85227 10.7273C8.99162 10.588 9.18016 10.5092 9.37717 10.5078C9.57418 10.5064 9.76383 10.5826 9.90513 10.7198L12 12.8142L14.0943 10.7198C14.2357 10.5826 14.4253 10.5064 14.6223 10.5078C14.8193 10.5092 15.0079 10.588 15.1472 10.7273C15.2865 10.8666 15.3655 11.0551 15.367 11.2521C15.3685 11.4491 15.2924 11.6388 15.1551 11.7802L13.0603 13.875L15.1551 15.9698Z" fill="#666666"/>
</svg>
